<svg width="25" height="25" viewBox="0 0 25 25" fill="none" xmlns="http://www.w3.org/2000/svg">
<path d="M23.4792 6.68749C23.3554 6.19313 23.1034 5.74017 22.7486 5.37437C22.3938 5.00857 21.9487 4.74289 21.4583 4.60416C19.6667 4.16666 12.5 4.16666 12.5 4.16666C12.5 4.16666 5.33334 4.16666 3.54167 4.64582C3.0513 4.78456 2.60623 5.05024 2.25141 5.41604C1.89658 5.78184 1.64458 6.23479 1.52084 6.72916C1.19294 8.54744 1.03254 10.392 1.04167 12.2396C1.02998 14.1011 1.19039 15.9597 1.52084 17.7917C1.65725 18.2707 1.91491 18.7064 2.26891 19.0567C2.6229 19.4071 3.06128 19.6602 3.54167 19.7917C5.33334 20.2708 12.5 20.2708 12.5 20.2708C12.5 20.2708 19.6667 20.2708 21.4583 19.7917C21.9487 19.6529 22.3938 19.3872 22.7486 19.0214C23.1034 18.6556 23.3554 18.2027 23.4792 17.7083C23.8045 15.9037 23.9649 14.0733 23.9583 12.2396C23.97 10.3781 23.8096 8.51947 23.4792 6.68749Z" stroke="white" stroke-width="2" stroke-linecap="round" stroke-linejoin="round"/>
<path d="M10.1563 15.6458L16.1458 12.2396L10.1563 8.83332V15.6458Z" stroke="white" stroke-width="2" stroke-linecap="round" stroke-linejoin="round"/>
</svg>
