<svg width="25" height="25" viewBox="0 0 25 25" fill="none" xmlns="http://www.w3.org/2000/svg">
<path d="M9.37504 19.7917C4.16671 21.3542 4.16671 17.1875 2.08337 16.6667M16.6667 22.9167V18.8854C16.7058 18.3887 16.6387 17.8894 16.4698 17.4206C16.301 16.9519 16.0343 16.5244 15.6875 16.1667C18.9584 15.8021 22.3959 14.5625 22.3959 8.875C22.3956 7.42065 21.8362 6.02208 20.8334 4.96875C21.3082 3.69636 21.2746 2.28995 20.7396 1.04167C20.7396 1.04167 19.5105 0.677082 16.6667 2.58333C14.2792 1.93627 11.7625 1.93627 9.37504 2.58333C6.53129 0.677082 5.30212 1.04167 5.30212 1.04167C4.7671 2.28995 4.73352 3.69636 5.20837 4.96875C4.19809 6.02989 3.63809 7.44111 3.64587 8.90625C3.64587 14.5521 7.08337 15.7917 10.3542 16.1979C10.0115 16.5521 9.74719 16.9744 9.57849 17.4374C9.40978 17.9005 9.34047 18.3938 9.37504 18.8854V22.9167" stroke="#03DADA" stroke-width="2" stroke-linecap="round" stroke-linejoin="round"/>
</svg>
