<svg width="224" height="74" viewBox="0 0 224 74" fill="none" xmlns="http://www.w3.org/2000/svg">
<path d="M13.824 73.728C10.944 73.728 8.46402 73.056 6.38402 71.712C4.33602 70.368 2.75202 68.544 1.63201 66.24C0.544015 63.936 1.46627e-05 61.344 1.46627e-05 58.464V16.896C1.46627e-05 13.984 0.544015 11.392 1.63201 9.11996C2.75202 6.81596 4.33602 4.99196 6.38402 3.64795C8.46402 2.30396 10.944 1.63196 13.824 1.63196C16.704 1.63196 19.168 2.30396 21.216 3.64795C23.296 4.99196 24.88 6.81596 25.968 9.11996C27.088 11.424 27.648 14.016 27.648 16.896V58.464C27.648 61.344 27.088 63.936 25.968 66.24C24.88 68.544 23.296 70.368 21.216 71.712C19.168 73.056 16.704 73.728 13.824 73.728ZM13.824 63.648C15.104 63.648 16 63.12 16.512 62.064C17.024 60.976 17.28 59.776 17.28 58.464V16.896C17.28 15.584 17.008 14.4 16.464 13.344C15.92 12.256 15.04 11.712 13.824 11.712C12.64 11.712 11.76 12.256 11.184 13.344C10.64 14.4 10.368 15.584 10.368 16.896V58.464C10.368 59.776 10.64 60.976 11.184 62.064C11.728 63.12 12.608 63.648 13.824 63.648ZM34.8863 72.96V2.39996H44.5823L54.1823 39.168L55.0463 42.432H55.6223V2.39996H65.1263V72.96H56.3903L45.8303 36.192L44.9663 32.928H44.3903V72.96H34.8863ZM72.7613 72.96V2.39996H83.3213C86.6493 2.39996 89.4653 2.94396 91.7693 4.03196C94.0733 5.11996 95.9293 6.97596 97.3373 9.59996C98.7453 12.224 99.7533 15.824 100.361 20.4C101.001 24.976 101.321 30.752 101.321 37.728C101.321 44.736 101.001 50.528 100.361 55.104C99.7533 59.648 98.7453 63.232 97.3373 65.856C95.9293 68.448 94.0733 70.288 91.7693 71.376C89.4653 72.432 86.6493 72.96 83.3213 72.96H72.7613ZM83.1293 62.592C85.6893 62.592 87.4973 61.584 88.5533 59.568C89.6093 57.552 90.2493 54.672 90.4733 50.928C90.6973 47.184 90.8093 42.736 90.8093 37.584C90.8093 32.368 90.6973 27.92 90.4733 24.24C90.2493 20.528 89.5933 17.696 88.5053 15.744C87.4493 13.76 85.6573 12.768 83.1293 12.768V62.592ZM121.824 73.728C118.944 73.728 116.464 73.056 114.384 71.712C112.336 70.368 110.752 68.544 109.632 66.24C108.544 63.936 108 61.344 108 58.464V16.896C108 13.984 108.544 11.392 109.632 9.11996C110.752 6.81596 112.336 4.99196 114.384 3.64795C116.464 2.30396 118.944 1.63196 121.824 1.63196C124.704 1.63196 127.168 2.30396 129.216 3.64795C131.296 4.99196 132.88 6.81596 133.968 9.11996C135.088 11.424 135.648 14.016 135.648 16.896V58.464C135.648 61.344 135.088 63.936 133.968 66.24C132.88 68.544 131.296 70.368 129.216 71.712C127.168 73.056 124.704 73.728 121.824 73.728ZM121.824 63.648C123.104 63.648 124 63.12 124.512 62.064C125.024 60.976 125.28 59.776 125.28 58.464V16.896C125.28 15.584 125.008 14.4 124.464 13.344C123.92 12.256 123.04 11.712 121.824 11.712C120.64 11.712 119.76 12.256 119.184 13.344C118.64 14.4 118.368 15.584 118.368 16.896V58.464C118.368 59.776 118.64 60.976 119.184 62.064C119.728 63.12 120.608 63.648 121.824 63.648ZM142.886 72.96V2.39996H153.254C159.462 2.39996 164.038 4.12796 166.982 7.58396C169.926 11.008 171.398 16.064 171.398 22.752C171.398 26.72 170.694 30.16 169.286 33.072C167.91 35.952 166.23 38.064 164.246 39.408L171.302 72.96H160.934L155.078 43.2H153.254V72.96H142.886ZM153.254 33.6C155.174 33.6 156.694 33.184 157.814 32.352C158.934 31.488 159.734 30.272 160.214 28.704C160.694 27.136 160.934 25.28 160.934 23.136C160.934 19.776 160.374 17.2 159.254 15.408C158.166 13.584 156.166 12.672 153.254 12.672V33.6ZM178.639 41.088C178.127 41.088 177.647 40.928 177.199 40.608C176.815 40.288 176.623 39.904 176.623 39.456C176.623 38.816 178.639 38.208 182.671 37.632C186.767 36.992 190.223 36.672 193.039 36.672C193.551 36.672 194.031 36.832 194.479 37.152C194.927 37.472 195.151 37.856 195.151 38.304C195.151 38.944 193.135 39.584 189.103 40.224C185.071 40.8 181.583 41.088 178.639 41.088ZM222.283 73.92C221.003 73.92 220.203 73.28 219.883 72L218.731 67.776C216.939 61.824 215.627 56.8 214.795 52.704C214.283 50.464 213.643 47.36 212.875 43.392C211.979 38.784 211.147 35.04 210.379 32.16L209.419 32.736L208.171 33.312L208.363 70.272V71.712C208.363 72.992 207.787 73.632 206.635 73.632C206.123 73.632 205.707 73.472 205.387 73.152C205.067 72.832 204.907 72.448 204.907 72V70.56L205.099 51.168L205.291 41.856C205.547 30.656 205.675 21.12 205.675 13.248V0.863956C205.675 0.287956 206.251 -4.3869e-05 207.403 -4.3869e-05C209.067 -4.3869e-05 210.603 0.447956 212.011 1.34396C213.483 2.23996 214.635 3.45596 215.467 4.99196C217.195 8.12796 218.059 11.552 218.059 15.264C218.059 18.208 217.419 21.408 216.139 24.864C215.755 25.824 215.275 26.944 214.699 28.224C214.123 29.44 213.611 30.272 213.163 30.72C214.507 35.648 216.459 43.232 219.019 53.472L223.531 70.752C223.595 70.944 223.627 71.296 223.627 71.808C223.627 72.384 223.499 72.864 223.243 73.248C223.051 73.696 222.731 73.92 222.283 73.92ZM208.075 30.144C208.587 30.144 209.451 29.536 210.667 28.32C211.883 27.104 212.747 26.08 213.259 25.248C213.707 24.352 214.091 23.008 214.411 21.216C214.731 19.424 214.891 17.824 214.891 16.416C214.891 13.792 214.443 11.104 213.547 8.35196C213.099 6.75196 212.427 5.47196 211.531 4.51196C210.635 3.48796 209.643 2.97596 208.555 2.97596H208.363C208.299 3.03996 208.203 3.07196 208.075 3.07196V30.144Z" fill="white"/>
</svg>
